<svg width="234" height="76" viewBox="0 0 234 76" fill="none" xmlns="http://www.w3.org/2000/svg">
<rect width="234" height="76" rx="20" fill="#00057B"/>
<path d="M29.2912 50L29.8935 46.4545L39.4389 38.7841C40.2571 38.1023 40.9503 37.4886 41.5185 36.9432C42.0942 36.3977 42.5488 35.8636 42.8821 35.3409C43.223 34.8106 43.4465 34.2386 43.5526 33.625C43.6662 32.9432 43.6094 32.3561 43.3821 31.8636C43.1624 31.3636 42.8063 30.9811 42.3139 30.7159C41.8291 30.4432 41.2457 30.3068 40.5639 30.3068C39.8518 30.3068 39.2041 30.4508 38.6207 30.7386C38.0374 31.0265 37.5526 31.4394 37.1662 31.9773C36.7798 32.5152 36.5223 33.1553 36.3935 33.8977H31.723C31.9806 32.375 32.5526 31.053 33.4389 29.9318C34.3253 28.8106 35.4389 27.9432 36.7798 27.3295C38.1207 26.7159 39.6056 26.4091 41.2344 26.4091C42.901 26.4091 44.3026 26.7045 45.4389 27.2955C46.5829 27.8788 47.4124 28.6894 47.9276 29.7273C48.4427 30.7652 48.5866 31.9545 48.3594 33.2955C48.2079 34.1818 47.8859 35.053 47.3935 35.9091C46.901 36.7576 46.1283 37.7045 45.0753 38.75C44.0223 39.7879 42.5791 41.0341 40.7457 42.4886L36.8026 45.8182L36.7685 45.9773H46.5526L45.8821 50H29.2912ZM49.277 45.9091L49.9134 42.0341L62.1747 26.7273H65.5156L64.6293 32.0909H62.6406L54.9134 41.7841L54.8906 41.9659H68.6861L68.0384 45.9091H49.277ZM59.7656 50L60.652 44.7159L61.027 43.0227L63.7202 26.7273H68.3338L64.4702 50H59.7656ZM84.8622 25.6364L72.7713 53.5H68.6009L80.6918 25.6364H84.8622ZM84.0241 50L96.831 30.9091L96.8764 30.75H85.6491L86.2969 26.7273H102.626L101.956 30.8068L89.1037 50H84.0241ZM133.007 26.7273L129.143 50H124.893L117.223 35.3523H117.041L114.598 50H109.678L113.541 26.7273H117.859L125.496 41.3636H125.689L128.109 26.7273H133.007ZM133.209 50L137.072 26.7273H152.754L152.072 30.7841H141.311L140.402 36.3295H150.357L149.675 40.3864H139.72L138.811 45.9432H149.618L148.936 50H133.209ZM158.041 50L155.246 26.7273H160.621L161.803 42.8977H161.996L168.916 26.7273H173.518L175.087 42.9318H175.291L181.814 26.7273H187.189L176.666 50H171.871L169.984 34.7841H169.803L162.837 50H158.041ZM201.092 33.4886C201.13 32.5417 200.854 31.8106 200.263 31.2955C199.679 30.7803 198.797 30.5227 197.615 30.5227C196.812 30.5227 196.115 30.6364 195.524 30.8636C194.933 31.0833 194.46 31.3902 194.104 31.7841C193.755 32.1705 193.539 32.6174 193.456 33.125C193.373 33.5417 193.399 33.9053 193.536 34.2159C193.679 34.5265 193.903 34.7955 194.206 35.0227C194.517 35.2424 194.884 35.4356 195.308 35.6023C195.732 35.7614 196.183 35.8977 196.661 36.0114L198.661 36.5114C199.638 36.7386 200.517 37.0417 201.297 37.4205C202.085 37.7992 202.744 38.2652 203.274 38.8182C203.812 39.3712 204.191 40.0227 204.411 40.7727C204.63 41.5227 204.661 42.3826 204.501 43.3523C204.259 44.7765 203.695 46.0114 202.808 47.0568C201.922 48.0947 200.759 48.9015 199.32 49.4773C197.88 50.0455 196.214 50.3295 194.32 50.3295C192.441 50.3295 190.854 50.0417 189.558 49.4659C188.263 48.8902 187.32 48.0379 186.729 46.9091C186.145 45.7727 185.971 44.3674 186.206 42.6932H190.967C190.884 43.4735 190.998 44.125 191.308 44.6477C191.626 45.1629 192.1 45.553 192.729 45.8182C193.357 46.0758 194.096 46.2045 194.945 46.2045C195.786 46.2045 196.532 46.0833 197.183 45.8409C197.842 45.5985 198.376 45.2614 198.786 44.8295C199.195 44.3977 199.445 43.9015 199.536 43.3409C199.626 42.8182 199.547 42.3788 199.297 42.0227C199.047 41.6667 198.645 41.3636 198.092 41.1136C197.547 40.8561 196.869 40.6288 196.058 40.4318L193.626 39.7955C191.748 39.3182 190.327 38.572 189.365 37.5568C188.403 36.5417 188.058 35.1742 188.331 33.4545C188.573 32.0455 189.161 30.8144 190.092 29.7614C191.032 28.7008 192.214 27.8788 193.638 27.2955C195.07 26.7045 196.634 26.4091 198.331 26.4091C200.058 26.4091 201.517 26.7083 202.706 27.3068C203.895 27.8977 204.763 28.7235 205.308 29.7841C205.854 30.8447 206.02 32.0795 205.808 33.4886H201.092Z" fill="white"/>
</svg>
